<svg width="113" height="35" viewBox="0 0 113 35" fill="none" xmlns="http://www.w3.org/2000/svg">
<g clip-path="url(#clip0_106_6239)">
<path d="M31.5003 24.8491C31.5003 27.6559 30.539 30.007 28.6164 31.9025C26.6959 33.7974 24.307 34.7452 21.4498 34.7458H13.0282V21.3155H18.4641V29.8529H21.4498C22.8888 29.8529 24.0612 29.3953 24.9672 28.48C25.8745 27.5679 26.3275 26.3576 26.3262 24.8491C26.3262 23.3404 25.8732 22.1288 24.9672 21.2142C24.0619 20.3003 22.8894 19.8433 21.4498 19.8433H10.0424C8.44527 19.8659 6.86591 19.5203 5.43784 18.8356C5.34589 18.7917 5.25395 18.7438 5.16404 18.6961C4.31804 18.2426 3.54691 17.6717 2.87577 17.002C1.05359 15.2196 0.0230427 12.8317 0 10.3385L0 9.5717C0.0799666 6.92733 1.03858 4.70045 2.87585 2.89106C4.79637 0.996254 7.18523 0.0485187 10.0424 0.0478516H18.4641V13.48H13.0282V4.94079H10.0424C8.60351 4.94079 7.43107 5.39777 6.52511 6.31172C5.61779 7.22573 5.16412 8.4367 5.16412 9.94462C5.16412 11.4551 5.61779 12.6667 6.52511 13.5794C7.4304 14.4934 8.60284 14.951 10.0424 14.9523H21.4498C24.3077 14.9523 26.6965 15.8987 28.6164 17.7917C30.539 19.6865 31.5003 22.039 31.5003 24.8491Z" fill="white"/>
<path d="M51.0401 0H46.1815L41.0332 14.9261H45.357L46.0255 12.7724H51.2183L51.887 14.9261H56.1885L51.0401 0ZM47.0507 9.4888L48.6108 4.41394L50.1932 9.4888H47.0507Z" fill="#E97522"/>
<path d="M63.678 1.24557e-08H57.3262V9.90914H61.427V3.68889H63.678C64.1714 3.67211 64.6629 3.75561 65.12 3.93388C65.5772 4.11216 65.9896 4.38115 66.3302 4.72312C67.0134 5.41269 67.3551 6.32601 67.3554 7.46306C67.3554 8.60042 67.0136 9.51373 66.3302 10.203C65.9897 10.545 65.5772 10.814 65.1201 10.9923C64.6629 11.1706 64.1714 11.2541 63.678 11.2372H57.3262V14.9261H63.678C65.8321 14.9261 67.6336 14.2118 69.0825 12.7831C70.5314 11.3545 71.2558 9.58111 71.2555 7.46306C71.2555 5.34512 70.5312 3.57176 69.0825 2.14299C67.6338 0.714222 65.8324 -0.000108915 63.678 1.24557e-08Z" fill="#E97522"/>
<path d="M79.4554 1.24557e-08H73.1035V3.68889H79.4554C79.9487 3.67211 80.4402 3.75561 80.8974 3.93388C81.3545 4.11215 81.767 4.38115 82.1075 4.72312C82.7907 5.41275 83.1324 6.32606 83.1327 7.46306C83.1327 8.60042 82.791 9.51373 82.1075 10.203C81.767 10.545 81.3546 10.814 80.8974 10.9923C80.4402 11.1706 79.9487 11.254 79.4554 11.2372H77.2043V5.01698H73.1035V14.9261H79.4554C81.6094 14.9261 83.4109 14.2118 84.8598 12.7831C86.3087 11.3545 87.0331 9.58111 87.0328 7.46306C87.0328 5.34512 86.3085 3.57176 84.8598 2.14299C83.4111 0.714222 81.6097 -0.000108915 79.4554 1.24557e-08Z" fill="#E97522"/>
<path d="M47.0952 19.7538C47.8254 19.7354 48.5521 19.8559 49.2332 20.1085C49.9142 20.3611 50.536 20.7406 51.0625 21.225C52.1321 22.2061 52.667 23.4571 52.6671 24.9781C52.6671 26.4994 52.1322 27.7503 51.0625 28.7308C50.5361 29.2153 49.9143 29.5949 49.2332 29.8475C48.5521 30.1001 47.8254 30.2206 47.0952 30.2021H45.0224V34.6801H41.0332V19.7538H47.0952ZM47.0952 26.5773C47.305 26.5815 47.5135 26.5439 47.7073 26.4668C47.9011 26.3897 48.0759 26.2747 48.2207 26.1294C48.3736 25.9765 48.4928 25.7959 48.5714 25.5981C48.6499 25.4004 48.6861 25.1895 48.6778 24.9781C48.6868 24.7682 48.6509 24.5588 48.5723 24.3626C48.4937 24.1664 48.374 23.9877 48.2207 23.8374C48.0742 23.6948 47.8988 23.5824 47.7053 23.5072C47.5117 23.432 47.3041 23.3955 47.0952 23.4H45.0224V26.5773H47.0952Z" fill="#B1B1B1"/>
<path d="M62.6086 19.7539H66.5756V34.6803H62.6086V28.9444H58.2178V34.6803H54.2285V19.7539H58.2178V25.2765H62.6086V19.7539Z" fill="#B1B1B1"/>
<path d="M82.4325 32.751C80.8759 34.1937 78.7938 35.0003 76.6266 35.0003C74.4595 35.0003 72.3773 34.1937 70.8208 32.751C70.0487 32.0344 69.4395 31.1731 69.031 30.221C68.6226 29.2689 68.4239 28.2464 68.4471 27.2175C68.4239 26.1885 68.6227 25.1661 69.0311 24.214C69.4395 23.2619 70.0488 22.4006 70.8208 21.684C72.3773 20.2413 74.4595 19.4346 76.6266 19.4346C78.7938 19.4346 80.8759 20.2413 82.4325 21.684C83.2044 22.4007 83.8136 23.262 84.222 24.214C84.6304 25.1661 84.8292 26.1886 84.806 27.2175C84.8293 28.2464 84.6305 29.2688 84.2221 30.2209C83.8137 31.173 83.2044 32.0343 82.4325 32.751ZM73.6177 30.1282C74.3258 30.8503 75.2748 31.3135 76.3015 31.438C77.3281 31.5625 78.368 31.3406 79.2419 30.8104C80.1159 30.2802 80.7692 29.475 81.0893 28.5334C81.4094 27.5919 81.3763 26.5731 80.9955 25.6524C80.6148 24.7318 79.9104 23.967 79.0037 23.4898C78.097 23.0127 77.0447 22.8531 76.0281 23.0385C75.0116 23.2239 74.0945 23.7427 73.4348 24.5055C72.7751 25.2683 72.4141 26.2274 72.4141 27.2175C72.3953 27.7557 72.4925 28.2918 72.6995 28.7926C72.9066 29.2933 73.2192 29.748 73.6177 30.1282Z" fill="#B1B1B1"/>
<path d="M96.5741 19.7539V23.4427H92.7182V34.6803H88.7289V23.4427H84.873V19.7539H96.5741Z" fill="#B1B1B1"/>
<path d="M110.626 32.751C109.069 34.1937 106.987 35.0003 104.82 35.0003C102.653 35.0003 100.571 34.1937 99.0142 32.751C98.2421 32.0344 97.6328 31.1731 97.2244 30.221C96.816 29.2689 96.6172 28.2464 96.6405 27.2175C96.6173 26.1886 96.8161 25.1661 97.2245 24.214C97.6329 23.2619 98.2421 22.4006 99.0141 21.684C100.571 20.2413 102.653 19.4346 104.82 19.4346C106.987 19.4346 109.069 20.2413 110.626 21.684C111.398 22.4007 112.007 23.262 112.415 24.214C112.824 25.1661 113.023 26.1886 112.999 27.2175C113.023 28.2464 112.824 29.2688 112.415 30.2209C112.007 31.173 111.398 32.0343 110.626 32.751ZM101.811 30.1282C102.519 30.8503 103.468 31.3135 104.495 31.438C105.521 31.5625 106.561 31.3406 107.435 30.8104C108.309 30.2802 108.963 29.475 109.283 28.5334C109.603 27.5919 109.57 26.5731 109.189 25.6524C108.808 24.7318 108.104 23.967 107.197 23.4898C106.29 23.0127 105.238 22.8531 104.221 23.0385C103.205 23.2239 102.288 23.7427 101.628 24.5055C100.968 25.2683 100.607 26.2274 100.607 27.2175C100.589 27.7557 100.686 28.2918 100.893 28.7926C101.1 29.2933 101.413 29.748 101.811 30.1282Z" fill="#B1B1B1"/>
</g>
<defs>
<clipPath id="clip0_106_6239">
<rect width="113" height="35" fill="white"/>
</clipPath>
</defs>
</svg>
